<?xml version="1.0" standalone="no"?>
<!DOCTYPE svg PUBLIC "-//W3C//DTD SVG 20010904//EN"
 "http://www.w3.org/TR/2001/REC-SVG-20010904/DTD/svg10.dtd">
<svg version="1.0" xmlns="http://www.w3.org/2000/svg"
 width="450.000000pt" height="253.000000pt" viewBox="0 0 450.000000 253.000000"
 preserveAspectRatio="xMidYMid meet">
<metadata>
Created by potrace 1.10, written by Peter Selinger 2001-2011
</metadata>
<g transform="translate(0.000000,253.000000) scale(0.100000,-0.100000)"
fill="#fff" stroke="none">
<path d="M2255 2510 c5 -8 8 -23 7 -32 -4 -24 4 -23 11 2 3 11 -2 25 -11 32
-13 11 -14 11 -7 -2z"/>
<path d="M4020 2160 c0 -22 -8 -23 -112 -21 -31 1 -59 -3 -63 -9 -9 -15 -25
-12 -25 6 0 8 -4 12 -10 9 -9 -5 -115 -13 -255 -18 -58 -2 -115 -24 -115 -43
0 -25 20 -25 63 0 58 35 69 33 21 -3 -48 -35 -88 -80 -79 -89 4 -4 26 14 48
41 52 59 98 74 225 76 76 1 92 -1 92 -14 0 -8 -4 -15 -10 -15 -5 0 -10 -7 -10
-16 0 -13 3 -14 14 -5 11 9 14 -3 20 -66 3 -42 6 -93 6 -114 0 -35 -2 -37 -27
-34 -16 2 -57 6 -93 10 -72 7 -110 21 -110 42 0 11 4 11 17 -2 16 -16 18 -16
34 3 10 13 15 32 12 49 l-4 28 16 -27 c19 -33 26 -34 50 -8 20 22 14 53 -10
44 -8 -4 -27 1 -41 11 -15 10 -33 14 -42 9 -9 -3 -41 -6 -71 -6 -58 2 -91 -11
-91 -33 0 -7 8 -16 18 -20 11 -3 24 -17 31 -31 11 -24 36 -29 36 -7 0 5 14 22
31 36 27 23 33 25 44 12 10 -12 7 -15 -14 -21 -34 -8 -53 -31 -38 -46 23 -23
12 -35 -43 -48 -36 -9 -84 -11 -140 -7 l-86 6 5 -72 c2 -40 5 -76 7 -82 1 -5
-8 -42 -20 -81 -25 -80 -30 -176 -18 -329 10 -131 30 -212 68 -285 26 -50 34
-59 52 -55 12 3 44 1 70 -4 38 -7 50 -6 54 5 3 8 15 14 27 14 21 0 21 -1 -3
-19 -17 -13 -20 -20 -11 -23 15 -5 50 25 50 43 0 6 7 9 15 5 8 -3 15 -1 15 4
0 18 19 10 25 -10 9 -28 25 -25 25 5 0 14 -4 25 -10 25 -5 0 -15 10 -21 22
-16 30 -49 163 -54 217 -2 24 -10 48 -17 53 -7 5 -18 12 -25 16 -17 11 -21 74
-4 80 10 3 12 0 8 -12 -8 -21 12 -66 30 -66 7 0 13 -5 13 -11 0 -5 3 -8 8 -6
4 3 6 -17 6 -43 -1 -33 3 -51 12 -54 8 -3 14 1 14 9 0 17 12 19 26 5 6 -6 28
-11 50 -13 38 -2 39 -3 45 -47 l6 -45 1 52 c1 28 -2 55 -8 58 -5 3 -10 14 -10
24 0 9 -6 25 -13 35 -11 15 -17 16 -35 7 -17 -9 -21 -8 -20 6 1 32 -20 70 -51
92 -16 12 -32 17 -35 12 -7 -11 11 -26 42 -35 12 -4 22 -15 22 -25 0 -25 -40
-21 -67 7 -19 19 -22 30 -16 67 4 32 2 48 -10 59 -18 18 -27 11 -27 -21 0 -12
-9 -28 -20 -35 -11 -7 -20 -20 -20 -29 0 -24 -9 -28 -41 -19 -30 9 -37 -1 -20
-29 6 -9 10 -10 16 -2 18 30 99 -31 115 -88 9 -34 -3 -116 -20 -126 -4 -2 -13
15 -20 38 -8 23 -15 35 -17 26 -2 -8 3 -28 11 -43 14 -28 11 -66 -5 -66 -5 0
-9 14 -9 30 0 17 -3 30 -7 30 -5 0 -8 -27 -9 -60 0 -51 2 -58 15 -47 23 19 71
99 72 121 1 12 5 4 11 -17 9 -33 7 -42 -16 -77 -33 -50 -76 -73 -110 -60 -19
7 -24 14 -19 27 6 15 5 16 -9 3 -15 -14 -15 -17 0 -33 12 -14 13 -17 1 -12
-18 7 -55 62 -64 95 -5 20 -4 22 5 10 10 -13 11 -12 6 3 -3 10 -6 24 -6 30 0
9 -2 9 -8 0 -4 -6 -7 6 -7 28 0 22 -6 43 -12 47 -16 10 -21 196 -6 214 6 7 13
44 15 82 2 39 9 71 15 73 6 2 9 13 6 24 -10 39 57 155 84 145 7 -3 13 -1 13 5
0 11 25 39 34 39 3 0 6 -6 6 -14 0 -9 7 -12 19 -9 14 3 21 -3 30 -28 14 -42
10 -45 -19 -14 -24 25 -50 33 -50 15 0 -5 4 -10 9 -10 9 0 -8 -54 -29 -91 -5
-9 -12 -33 -15 -53 -13 -69 -45 -56 -55 22 l-6 47 -5 -44 c-4 -37 -1 -48 18
-67 27 -27 28 -31 8 -50 -22 -22 -18 -44 6 -44 14 0 19 5 16 13 -3 8 -1 20 4
28 8 12 12 11 27 -6 9 -11 26 -27 36 -35 19 -15 19 -15 1 18 -11 17 -25 32
-31 32 -15 0 -24 23 -15 39 5 8 13 6 26 -9 l19 -21 22 28 c13 15 23 22 24 16
0 -7 -4 -13 -10 -13 -5 0 -10 -7 -10 -16 0 -29 25 -8 28 24 3 34 -2 37 -57 32
-26 -2 -26 -2 2 75 9 22 19 39 24 38 4 -1 17 -27 27 -58 23 -69 32 -59 41 51
9 106 27 111 24 7 -3 -87 18 -211 39 -232 18 -19 90 -32 99 -18 4 6 1 13 -5
15 -7 2 -12 13 -12 25 0 16 3 18 9 9 10 -16 21 31 20 82 0 25 -5 18 -27 -41
-19 -53 -32 -73 -44 -73 -10 0 -18 3 -18 8 0 11 -39 313 -45 349 -5 28 -3 31
15 26 14 -4 20 0 20 12 0 14 6 16 31 11 17 -3 49 -6 71 -6 l40 0 -4 -60 c-2
-33 -1 -60 3 -60 10 0 -4 -47 -25 -89 -10 -18 -15 -35 -12 -38 6 -6 41 61 59
116 12 34 12 41 1 45 -9 3 -14 21 -14 46 0 25 4 39 10 35 6 -3 10 -22 10 -40
0 -25 4 -33 14 -29 10 4 14 -2 12 -19 0 -14 -4 -23 -7 -21 -4 2 -9 -4 -12 -14
-3 -9 -19 -53 -35 -97 -32 -87 -48 -190 -32 -200 5 -3 10 -15 10 -26 0 -10 4
-19 8 -19 13 0 1 -72 -16 -98 -19 -29 -10 -88 18 -114 11 -10 20 -25 20 -33 0
-8 8 -15 17 -15 9 0 13 -3 10 -6 -4 -4 -20 -1 -36 5 -23 10 -33 10 -50 -1 -12
-7 -21 -16 -21 -20 0 -10 68 -38 92 -38 12 0 22 -9 25 -21 5 -19 12 -21 74
-17 58 3 71 7 93 31 31 34 58 117 37 117 -5 0 -11 -15 -15 -32 -8 -41 -62 -98
-93 -98 -12 0 -28 7 -35 15 -7 9 -19 23 -27 31 -25 28 -52 163 -52 259 0 111
28 262 49 270 8 3 16 4 17 3 2 -3 34 -150 38 -178 1 -8 8 -25 14 -36 7 -12 10
-24 6 -27 -3 -4 -1 -13 6 -20 6 -8 8 -23 4 -32 -4 -13 -3 -16 5 -11 7 4 12 16
12 26 0 10 6 21 13 23 9 4 9 7 0 14 -24 17 -52 100 -72 208 -21 121 -29 145
-42 145 -5 0 -9 21 -9 48 0 43 -5 69 -26 142 -5 21 -4 23 7 13 21 -20 29 -15
29 16 0 24 -4 28 -19 24 -16 -4 -19 2 -21 44 -4 79 -3 103 4 111 4 4 52 9 107
12 97 5 100 4 106 -17 3 -14 13 -23 24 -23 23 0 24 18 4 44 -19 25 -19 37 0
30 8 -4 15 -1 15 5 0 6 -13 11 -29 11 -17 0 -33 5 -36 10 -10 17 -25 11 -25
-10z m-398 -367 c-4 -30 -6 -34 -12 -18 -4 11 -5 24 -2 29 2 4 -2 12 -9 17
-11 7 -9 9 6 9 18 0 20 -5 17 -37z m-172 8 c0 -5 -14 -14 -30 -21 -17 -7 -44
-29 -60 -49 l-30 -36 0 52 0 52 53 4 c28 2 55 4 60 5 4 1 7 -2 7 -7z m110 -16
c0 -9 -12 -13 -35 -12 -24 1 -35 7 -35 17 0 12 8 15 35 12 20 -2 35 -10 35
-17z m32 -37 c-20 -20 -36 5 -21 33 l12 24 10 -23 c7 -16 7 -26 -1 -34z m-112
23 c0 -4 -11 -13 -25 -19 -14 -7 -28 -20 -32 -29 -4 -10 -14 -28 -24 -41 -9
-12 -25 -45 -35 -72 -10 -28 -22 -50 -26 -50 -11 0 -10 2 8 39 9 17 19 53 22
79 6 37 13 49 33 59 14 7 33 21 43 32 17 19 36 20 36 2z m400 -128 c0 -19 -35
-103 -43 -103 -4 0 -6 8 -4 18 3 9 8 34 12 55 4 23 11 37 20 37 8 0 15 -3 15
-7z m-45 -165 c-9 -81 -16 -108 -25 -108 -8 0 -5 110 5 141 4 10 11 19 17 19
6 0 8 -19 3 -52z m-506 -2 c8 -10 8 -16 -2 -25 -16 -13 -27 -5 -27 21 0 21 13
23 29 4z m346 -232 c14 -9 25 -25 25 -35 0 -23 -1 -23 -45 -2 -43 21 -46 41
-7 52 1 1 14 -6 27 -15z m55 -24 c0 -11 -4 -20 -10 -20 -5 0 -10 9 -10 20 0
11 5 20 10 20 6 0 10 -9 10 -20z m-110 -235 c0 -6 -13 -12 -30 -13 -31 -1 -48
12 -30 23 6 4 16 19 21 33 l10 26 14 -28 c8 -16 15 -34 15 -41z"/>
<path d="M3085 2110 c7 -22 6 -23 -49 -18 -31 3 -56 2 -56 -1 0 -9 -251 -7
-277 2 -12 5 -24 3 -28 -3 -3 -5 -19 -10 -36 -10 -22 0 -29 -5 -29 -20 0 -24
9 -25 57 -5 42 18 79 19 89 4 4 -7 39 -10 99 -7 51 1 97 0 101 -4 4 -5 2 -8
-4 -8 -14 0 -15 -149 -2 -190 4 -14 6 18 3 75 -6 129 13 108 23 -25 6 -84 5
-93 -9 -87 -9 3 -51 9 -94 13 -43 4 -81 11 -84 17 -11 17 3 47 22 47 24 0 34
19 15 26 -11 4 -16 19 -16 44 0 49 -20 56 -55 20 -35 -36 -84 -60 -123 -60
-38 0 -49 -15 -22 -30 13 -7 19 -18 16 -26 -3 -8 1 -17 8 -20 18 -7 28 -44 13
-44 -7 1 -23 7 -37 15 -29 17 -52 20 -30 4 21 -14 -26 -1 -60 17 -23 12 -23
13 -4 14 11 0 24 -3 28 -7 4 -4 22 -8 40 -8 49 0 33 21 -21 29 -84 11 -93 9
-93 -21 0 -22 2 -25 10 -13 7 11 10 0 10 -38 0 -38 -6 -62 -20 -82 -11 -15
-32 -54 -48 -86 -15 -33 -32 -66 -37 -74 -6 -8 -10 -28 -11 -45 0 -16 -4 -56
-8 -88 -8 -54 -7 -59 13 -64 19 -5 21 -12 21 -71 0 -93 27 -230 56 -279 37
-64 19 -86 -60 -74 -5 0 1 10 14 21 l23 20 -29 -1 c-16 0 -23 -3 -16 -6 10 -4
9 -8 -5 -19 -23 -17 -33 -17 -33 -1 0 9 -25 12 -102 9 -112 -3 -132 -7 -123
-22 3 -5 -4 -10 -17 -10 -45 1 -71 -5 -76 -17 -2 -9 12 -13 51 -13 31 0 57 4
59 10 8 23 197 30 211 8 10 -15 194 -7 238 10 15 6 31 7 40 1 8 -5 25 -9 39
-9 23 1 24 2 7 14 -10 8 -15 20 -11 30 8 22 44 21 44 -1 0 -10 5 -25 11 -33 8
-11 9 -7 5 18 -4 23 -2 32 8 32 16 0 76 29 76 37 0 3 -22 3 -50 0 -31 -4 -50
-2 -50 4 0 6 11 44 25 86 14 42 23 78 20 81 -3 3 -5 0 -5 -7 0 -7 -4 -9 -10
-6 -9 6 -15 -16 -11 -39 3 -16 -21 -76 -30 -76 -13 0 -5 75 11 115 15 37 19
84 8 107 -5 10 -3 18 7 22 8 3 15 2 16 -2 6 -40 5 -72 -3 -72 -25 0 7 -19 42
-25 22 -4 44 -14 49 -22 4 -9 11 -11 14 -6 10 15 -7 31 -43 40 -24 6 -35 15
-35 28 0 28 24 30 34 3 7 -17 10 -19 14 -8 11 30 24 155 17 160 -4 3 -15 57
-24 120 -10 63 -24 153 -32 200 -19 114 -19 110 16 100 17 -5 62 -12 100 -16
39 -4 70 -10 70 -15 0 -5 7 -6 15 -3 12 5 15 -2 14 -32 -1 -38 -2 -38 -9 -9
l-8 30 -1 -37 c0 -20 -6 -40 -12 -43 -6 -4 -8 -14 -5 -22 3 -8 -17 -66 -45
-129 -28 -63 -49 -118 -45 -121 3 -3 16 18 29 47 15 34 26 49 30 39 6 -15 6
-16 11 41 3 34 66 180 77 180 14 0 12 -5 -27 -88 -41 -86 -42 -97 -48 -307 -4
-154 6 -215 36 -215 15 0 42 -39 34 -48 -3 -3 -14 2 -24 11 -10 10 -32 17 -48
17 -51 0 -55 9 -45 87 5 38 14 79 20 91 15 28 14 39 -3 45 -10 4 -13 1 -9 -9
6 -15 -5 -18 -24 -6 -15 9 -10 45 7 50 7 3 16 -2 21 -9 7 -11 9 -11 9 3 0 26
-11 48 -25 48 -24 0 -37 -64 -29 -147 4 -43 6 -102 5 -130 -1 -29 2 -53 6 -54
4 0 17 -2 28 -5 11 -2 41 -5 67 -6 42 -3 49 -6 59 -31 10 -25 16 -28 40 -23
16 3 31 1 34 -4 19 -31 114 24 118 68 0 12 5 22 9 22 4 0 5 6 2 13 -3 8 0 34
5 58 9 39 8 42 -5 25 -8 -11 -14 -31 -14 -45 0 -39 -39 -110 -70 -126 -25 -13
-29 -12 -53 13 -37 38 -64 124 -79 250 -10 84 -14 97 -16 60 -3 -52 -26 -84
-29 -41 -1 19 1 22 8 12 5 -8 6 16 2 59 -3 39 -3 72 1 72 26 0 45 -24 52 -65
8 -55 33 -74 66 -50 l22 15 -27 0 c-21 0 -30 7 -42 36 -8 20 -13 40 -10 44 3
4 -2 13 -10 20 -15 13 -12 67 6 118 10 25 29 30 29 7 0 -8 4 -23 9 -33 18 -37
61 -184 56 -191 -2 -5 2 -15 11 -22 13 -10 17 -10 24 2 6 8 6 15 0 17 -6 2
-10 11 -10 21 0 9 -4 21 -9 27 -13 12 -62 204 -56 214 3 5 1 11 -5 15 -5 3
-10 15 -10 25 0 10 -6 25 -14 33 -19 18 -49 188 -36 201 16 16 12 49 -4 43
-11 -4 -16 10 -21 63 -4 38 -4 73 -1 78 3 5 53 10 110 11 98 2 105 1 120 -21
9 -12 16 -32 16 -44 0 -28 10 -54 20 -54 4 0 3 19 -2 43 -6 23 -11 57 -12 74
-2 43 -17 58 -44 44 -25 -13 -62 -14 -62 -2 0 5 -8 11 -17 15 -10 3 -24 9 -32
12 -10 5 -11 1 -6 -16z m-300 -140 c-4 -6 -1 -18 6 -26 15 -18 12 -21 -27 -27
-38 -6 -67 8 -37 17 11 4 28 15 38 26 19 21 30 27 20 10z m-67 -110 c1 -33 -1
-34 -26 -21 -9 5 -25 12 -34 15 -29 9 -21 24 15 29 17 2 35 5 38 5 3 1 6 -11
7 -28z m-188 -45 c7 -8 27 -15 44 -15 17 0 48 -4 69 -9 38 -9 62 4 36 20 -7 4
-10 11 -6 15 3 4 13 1 21 -5 13 -11 12 -16 -2 -42 -14 -24 -22 -28 -44 -24
-30 7 -64 -9 -93 -44 -11 -13 -31 -36 -44 -50 -13 -14 -30 -39 -37 -56 -7 -16
-13 -24 -14 -17 0 18 -20 4 -20 -14 0 -8 5 -12 10 -9 7 4 9 -3 6 -20 -7 -39
-12 -40 -24 -5 -13 35 -1 77 23 87 9 3 14 12 11 19 -9 24 33 82 64 89 15 3 31
13 34 22 6 15 5 15 -41 -4 -9 -3 -13 4 -13 20 0 14 -3 32 -6 41 -8 20 10 21
26 1z m200 -49 c0 -23 -22 -51 -32 -40 -8 7 14 64 24 64 4 0 8 -11 8 -24z m12
-110 c-10 -26 -9 -41 1 -72 18 -49 39 -165 35 -184 -2 -8 3 -14 10 -12 6 1 12
-3 12 -8 0 -5 -4 -10 -10 -10 -5 0 -10 -11 -10 -25 0 -16 6 -25 15 -25 8 0 15
-4 15 -10 0 -5 -7 -10 -15 -10 -8 0 -15 -8 -15 -17 0 -9 -3 -13 -7 -9 -5 4 -8
13 -8 19 0 6 -21 16 -46 22 -43 11 -46 11 -42 -6 3 -11 9 -19 14 -19 5 0 7
-11 3 -25 -4 -15 -2 -25 5 -25 14 0 14 -28 0 -69 -16 -46 -27 -38 -23 17 2 36
1 40 -4 17 l-8 -30 -7 34 c-4 18 -7 41 -7 50 0 14 2 14 10 1 7 -10 10 -11 10
-2 0 7 -7 15 -16 19 -11 4 -14 13 -9 31 4 16 1 28 -7 33 -10 7 -10 9 0 9 6 0
12 7 12 15 0 8 -7 15 -16 15 -8 0 -13 -3 -10 -8 9 -16 -21 -39 -56 -44 -44 -5
-55 15 -25 45 18 18 20 18 38 1 10 -9 22 -14 26 -10 4 4 -3 16 -17 26 l-25 19
19 55 c11 32 23 53 29 49 6 -4 8 0 4 10 -7 17 26 112 39 112 14 0 16 -105 3
-121 -9 -11 -9 -18 -1 -26 7 -7 9 -37 5 -82 -5 -59 -3 -69 8 -58 19 18 59 15
59 -5 0 -41 12 1 16 55 3 44 0 63 -11 72 -13 11 -15 5 -15 -43 0 -50 -2 -56
-21 -54 -17 1 -20 6 -15 30 3 16 6 41 6 54 0 16 7 27 20 30 11 3 20 10 20 15
0 6 -7 8 -15 4 -8 -3 -15 -1 -15 5 0 6 -4 7 -10 4 -6 -4 -10 9 -10 32 l1 38
17 -31 c16 -30 46 -37 35 -8 -3 7 -9 11 -14 8 -5 -3 -9 7 -9 23 -1 15 -7 39
-15 53 -8 14 -14 33 -15 44 0 15 2 16 15 6 9 -7 14 -19 11 -27 -3 -7 -1 -13 4
-13 6 0 10 13 10 29 0 16 3 37 7 47 6 16 8 15 17 -5 7 -15 6 -32 -2 -55z m-74
35 c3 -20 1 -23 -15 -16 -10 4 -27 9 -38 12 -19 4 -19 4 -2 -10 20 -17 21 -33
3 -66 -13 -24 -13 -23 -20 15 -4 21 -9 46 -12 55 -5 18 30 39 61 36 13 -1 21
-11 23 -26z m-77 -111 c1 -34 -40 -162 -50 -156 -4 3 -6 -5 -4 -18 3 -13 0
-27 -6 -30 -10 -7 -14 28 -16 156 0 20 -3 40 -7 44 -8 7 -12 -25 -10 -83 1
-35 -8 -42 -26 -20 -16 19 32 156 66 187 l27 25 13 -40 c7 -22 13 -51 13 -65z
m454 30 c16 -18 17 -20 1 -20 -17 0 -29 -24 -51 -100 -10 -32 -13 -38 -14 -20
-1 30 31 160 40 160 3 0 14 -9 24 -20z m-606 -162 c-5 -18 -9 -45 -9 -60 0
-18 -5 -28 -15 -28 -8 0 -15 5 -15 10 0 6 3 10 8 10 4 0 5 22 4 50 -4 45 -2
50 16 50 18 0 20 -3 11 -32z m49 0 c7 -7 12 -33 12 -58 0 -25 -5 -51 -12 -58
-9 -9 -8 -12 5 -12 19 0 20 -2 11 -24 -3 -9 -11 -13 -17 -9 -12 8 -3 -175 10
-188 5 -5 28 -10 51 -11 36 -1 42 -4 47 -29 4 -15 1 -37 -4 -48 -11 -19 -9
-19 19 -10 16 6 30 15 30 21 0 15 24 35 38 30 21 -7 16 -20 -26 -67 -7 -8 -10
-15 -5 -15 4 0 -1 -7 -11 -15 -22 -17 -56 -20 -56 -5 0 5 6 7 14 4 8 -3 16 -2
19 3 3 4 -6 9 -19 9 -13 1 -37 10 -52 20 -15 10 -31 17 -35 16 -13 -4 -44 80
-51 138 -18 152 -18 185 -6 251 14 71 18 77 38 57z m133 -158 c9 -16 49 -180
49 -200 0 -12 -49 -64 -55 -58 -2 2 -5 17 -7 33 -2 23 -11 34 -38 46 -23 11
-39 13 -47 7 -25 -20 -28 84 -5 153 12 35 15 37 54 35 25 0 44 -7 49 -16z
m369 -90 c0 -11 -7 -20 -15 -20 -27 0 -18 30 13 39 1 1 2 -8 2 -19z m-435
-248 c-7 -7 -45 29 -45 41 0 6 11 0 25 -13 14 -13 23 -26 20 -28z m-36 -16 c9
-11 7 -15 -8 -19 -13 -3 -21 1 -24 14 -6 22 15 26 32 5z"/>
<path d="M2624 1471 c3 -18 6 -40 6 -47 0 -8 4 -14 9 -14 10 0 -3 77 -14 88
-4 4 -5 -8 -1 -27z"/>
<path d="M2610 1192 c0 -18 5 -32 10 -32 6 0 8 11 4 28 -10 39 -14 40 -14 4z"/>
<path d="M2527 1196 c-3 -8 -2 -18 3 -21 13 -8 20 9 11 24 -6 10 -10 9 -14 -3z"/>
<path d="M2566 1193 c-12 -12 -6 -33 9 -33 8 0 15 6 15 14 0 17 -14 28 -24 19z"/>
<path d="M2685 2032 c-31 -19 -63 -67 -52 -78 3 -3 16 10 29 30 13 19 35 40
51 45 15 6 27 12 27 15 0 12 -26 6 -55 -12z"/>
<path d="M3800 1952 c0 -33 4 -64 10 -67 6 -4 8 16 4 57 -9 82 -14 86 -14 10z"/>
<path d="M3909 1733 c-13 -15 -11 -16 14 -11 28 5 38 -8 12 -18 -25 -10 -18
-35 8 -29 19 5 26 -2 49 -47 39 -79 52 -160 46 -302 -5 -96 -10 -132 -27 -170
-25 -54 -23 -84 2 -45 19 29 47 145 47 197 0 24 4 32 18 32 16 0 17 8 11 88
-11 145 -44 246 -89 274 -11 7 -20 21 -20 30 0 24 -52 24 -71 1z"/>
<path d="M3097 1682 c-20 -22 -22 -36 -4 -29 19 7 64 -69 81 -139 22 -89 30
-216 16 -277 -26 -116 -43 -162 -50 -142 -5 15 -8 9 -11 -22 -5 -48 2 -54 23
-20 24 36 39 87 53 172 l13 80 2 -55 c3 -53 3 -53 11 25 19 172 -12 326 -79
398 -30 32 -34 33 -55 9z"/>
<path d="M3419 1639 c-2 -27 3 -54 12 -63 5 -5 6 7 2 30 -6 42 -12 56 -14 33z"/>
<path d="M3600 1554 c0 -10 -7 -28 -15 -38 -16 -21 -21 -71 -6 -62 5 3 11 -1
15 -9 3 -8 10 -15 16 -15 6 0 7 25 4 68 -6 65 -14 96 -14 56z"/>
<path d="M3360 1494 c0 -6 5 -35 10 -64 6 -32 7 -56 1 -59 -12 -8 -14 -23 -12
-104 0 -38 5 -66 10 -63 8 5 21 -85 21 -153 0 -20 5 -43 10 -51 6 -9 8 13 5
65 -7 134 -14 215 -19 224 -3 4 1 17 9 27 19 25 19 83 0 90 -9 4 -15 19 -15
38 0 28 -19 77 -20 50z"/>
<path d="M3977 1483 c-4 -3 -7 -16 -6 -27 0 -19 1 -19 10 3 10 24 8 36 -4 24z"/>
<path d="M2902 1455 c-17 -37 -14 -45 4 -12 9 16 14 31 11 33 -2 2 -9 -7 -15
-21z"/>
<path d="M3890 1450 c21 -30 40 -46 40 -35 0 11 -44 65 -53 65 -4 0 1 -13 13
-30z"/>
<path d="M3864 1389 c2 -31 11 -54 25 -68 16 -16 21 -17 21 -6 0 8 9 15 20 15
11 0 20 5 20 11 0 5 -10 9 -22 7 -16 -2 -23 2 -22 14 1 9 -4 14 -11 12 -7 -3
-17 9 -23 28 -11 33 -12 33 -8 -13z"/>
<path d="M3057 1385 c3 -15 14 -25 31 -28 38 -7 37 -3 -1 26 l-34 26 4 -24z"/>
<path d="M11 1377 c-8 -15 -12 -30 -8 -33 5 -5 224 -7 245 -2 9 2 169 -11 267
-22 44 -5 107 -12 140 -15 33 -4 67 -8 75 -10 8 -2 50 -7 93 -10 69 -6 80 -5
92 12 9 11 14 13 15 5 0 -9 21 -12 83 -11 45 2 107 -3 137 -9 30 -6 93 -13
140 -16 47 -2 97 -9 111 -15 15 -5 30 -7 33 -4 17 17 609 -136 687 -178 21
-11 59 -4 59 12 0 5 -8 9 -17 9 -39 0 -98 28 -98 46 0 9 -6 19 -13 22 -7 2
-12 -5 -12 -17 0 -19 -2 -20 -20 -9 -11 7 -16 14 -10 16 6 2 7 8 4 13 -3 6
-12 2 -19 -8 -13 -17 -14 -17 -21 0 -4 13 -9 15 -14 7 -5 -8 -16 -3 -37 14
-17 14 -33 23 -37 19 -3 -3 -6 0 -6 7 0 10 -4 8 -13 -4 -12 -16 -14 -16 -26
-2 -7 9 -11 22 -8 31 4 8 2 17 -3 20 -6 4 -10 -8 -10 -24 0 -27 -3 -30 -17
-22 -10 5 -26 12 -35 15 -14 4 -17 15 -15 52 1 28 -3 49 -9 51 -8 3 -10 -12
-6 -46 l5 -51 -39 4 c-107 11 -132 24 -102 54 10 10 10 15 0 21 -8 5 -13 11
-13 15 3 24 -3 15 -9 -14 l-7 -35 -2 31 c0 17 -7 31 -13 32 -40 3 -76 3 -95
-2 -13 -2 -25 -1 -28 5 -11 17 -45 -11 -45 -37 0 -23 -2 -24 -22 -13 -13 7
-24 12 -25 11 -2 -1 -3 1 -2 6 0 4 7 6 15 4 8 -2 14 4 14 12 0 11 -12 15 -47
15 -27 1 -74 2 -106 3 -45 2 -57 0 -58 -12 0 -10 -2 -11 -6 -2 -2 6 -13 12
-24 12 -10 0 -19 -6 -19 -12 0 -9 -2 -10 -8 -2 -4 7 -42 11 -104 10 -80 -1
-98 -4 -99 -16 0 -13 -1 -13 -7 0 -6 13 -45 18 -77 10 -5 -1 -12 -2 -15 0 -3
1 -18 3 -35 5 -82 10 -122 18 -137 26 -10 5 -19 5 -22 0 -3 -5 -26 -5 -53 1
-27 5 -86 11 -133 14 -107 6 -133 9 -145 16 -10 5 -14 5 -72 -7 -23 -5 -33 -4
-33 4 0 8 -11 10 -30 7 -19 -2 -30 0 -30 7 -1 7 -7 1 -15 -13 -12 -22 -14 -23
-20 -7 -4 9 -11 17 -17 17 -5 0 -6 -4 -3 -10 3 -5 -1 -10 -9 -10 -8 0 -16 7
-18 17 -2 12 -6 10 -17 -10z m1247 -76 c3 -8 -8 -11 -32 -9 -20 1 -36 7 -36
13 0 14 63 11 68 -4z m300 -25 c3 -22 -1 -26 -22 -26 -28 0 -43 15 -24 23 7 3
-3 6 -22 6 -43 1 -80 11 -80 21 0 4 20 6 45 5 25 -1 48 2 51 6 10 17 49 -9 52
-35z"/>
<path d="M515 1389 c-3 -4 1 -9 9 -12 14 -6 26 0 26 13 0 9 -30 9 -35 -1z"/>
<path d="M630 1390 c0 -5 8 -10 18 -11 22 -1 43 -5 65 -14 11 -5 17 -2 17 8 0
17 -37 30 -46 16 -3 -5 -13 -5 -24 1 -24 13 -30 13 -30 0z"/>
<path d="M803 1392 c-38 -2 -63 -7 -63 -14 0 -6 3 -9 6 -5 4 3 13 -1 22 -10
14 -14 17 -14 23 3 7 18 8 18 8 1 1 -17 2 -17 17 -2 10 9 20 13 23 8 5 -7 45
-9 64 -3 19 6 33 5 39 -5 5 -6 8 -6 8 2 0 7 7 10 15 7 8 -4 15 -1 15 5 0 8
-17 11 -48 10 -27 -1 -53 -1 -58 2 -5 2 -37 3 -71 1z"/>
<path d="M990 1382 c0 -7 4 -11 9 -7 5 3 12 1 16 -5 3 -5 11 -10 16 -10 6 0 8
3 6 8 -6 9 105 8 121 -2 7 -4 12 -3 12 3 0 5 10 8 23 6 63 -10 107 -8 107 5 0
5 -66 10 -155 12 -123 2 -155 0 -155 -10z"/>
<path d="M440 1386 c0 -8 51 -13 56 -5 3 5 -9 9 -25 9 -17 0 -31 -2 -31 -4z"/>
<path d="M1310 1379 c0 -6 7 -9 15 -5 8 3 15 1 15 -3 0 -5 11 -8 25 -7 14 0
25 4 25 8 0 4 14 3 30 -2 21 -6 30 -5 30 3 0 7 4 6 10 -3 5 -8 10 -10 10 -3 0
6 8 9 19 6 10 -3 22 0 25 5 4 7 -30 11 -99 11 -69 0 -105 -3 -105 -10z"/>
<path d="M1530 1376 c0 -9 13 -12 43 -10 23 1 44 3 47 4 3 1 10 1 15 0 27 -7
255 -6 255 1 0 4 12 2 27 -6 20 -10 31 -11 40 -3 10 8 13 6 13 -6 0 -16 1 -16
16 -2 10 11 21 13 31 7 9 -4 30 -5 49 -1 20 5 37 3 45 -4 9 -8 10 -8 5 2 -4 6
-2 12 3 12 6 0 11 -4 11 -10 0 -5 5 -10 11 -10 5 0 8 4 5 8 -2 4 4 8 15 8 10
0 19 -5 19 -11 0 -10 20 15 20 25 0 10 -135 5 -142 -5 -5 -7 -8 -7 -8 0 0 6
-94 11 -260 12 -206 2 -260 -1 -260 -11z"/>
<path d="M2207 1369 c-4 -15 -1 -16 19 -9 15 6 24 6 24 0 0 -6 7 -10 16 -10 8
0 13 4 10 8 -3 4 9 7 25 6 18 -1 29 2 26 9 -2 6 -28 11 -59 12 -47 2 -57 -1
-61 -16z"/>
<path d="M3620 1380 c0 -5 5 -10 10 -10 6 0 20 -16 31 -35 23 -38 40 -47 32
-15 -10 38 -73 90 -73 60z"/>
<path d="M4203 1358 c3 -9 0 -19 -7 -22 -6 -2 -3 -5 7 -5 9 -1 17 4 17 9 0 6
7 10 15 10 8 0 15 -5 15 -11 0 -8 4 -9 13 0 8 6 17 8 20 4 4 -3 13 0 22 7 8 7
15 8 15 4 0 -5 18 -9 40 -9 22 0 40 3 40 7 0 3 22 0 48 -6 44 -12 48 -12 49 5
2 18 -8 19 -120 20 -67 0 -135 2 -150 3 -22 1 -27 -2 -24 -16z"/>
<path d="M4120 1361 c0 -13 25 -20 49 -14 33 9 24 23 -14 23 -19 0 -35 -4 -35
-9z"/>
<path d="M3751 1324 c13 -16 29 -19 29 -5 0 5 -9 11 -21 14 -16 4 -18 3 -8 -9z"/>
<path d="M1813 1303 c-7 -3 -13 -12 -13 -21 0 -15 2 -15 10 -2 6 10 10 11 10
3 0 -7 5 -13 10 -13 12 0 14 27 3 33 -5 2 -14 2 -20 0z"/>
<path d="M1677 1281 c-3 -12 -1 -21 3 -21 14 0 19 15 11 29 -6 9 -10 7 -14 -8z"/>
<path d="M1860 1281 c0 -17 17 -21 42 -12 25 11 25 11 -14 17 -16 3 -28 0 -28
-5z"/>
<path d="M3714 1281 c4 -6 13 -11 21 -11 7 0 16 -6 19 -12 3 -7 5 -4 3 7 -1
12 -11 21 -26 23 -15 2 -21 0 -17 -7z"/>
<path d="M4326 1274 c-10 -25 -7 -34 9 -28 17 7 20 30 6 38 -5 3 -12 -1 -15
-10z"/>
<path d="M1942 1260 c7 -11 14 -16 16 -10 4 12 32 13 32 1 0 -5 9 -7 21 -4 15
4 17 8 8 14 -7 4 -16 6 -20 3 -4 -2 -10 0 -14 6 -3 5 -17 10 -31 10 -22 0 -23
-2 -12 -20z"/>
<path d="M3898 1250 c-3 -17 -1 -33 4 -36 4 -3 8 11 8 30 0 44 -6 47 -12 6z"/>
<path d="M3994 1258 c1 -27 -39 -35 -49 -11 -5 15 -7 15 -15 3 -15 -23 -12
-30 11 -30 17 0 20 -5 16 -22 -4 -13 -3 -49 2 -80 5 -36 4 -59 -2 -61 -6 -2
-8 -9 -6 -16 4 -11 9 -10 23 4 10 10 14 24 10 34 -29 70 -25 141 7 141 13 0
19 7 19 24 0 14 -4 27 -8 30 -5 3 -8 -4 -8 -16z"/>
<path d="M4372 1264 c-11 -12 -4 -14 44 -12 38 2 59 8 62 17 3 10 1 11 -9 5
-16 -10 -72 -12 -79 -3 -3 4 -11 1 -18 -7z"/>
<path d="M151 1256 c-10 -12 -8 -13 9 -9 25 7 37 23 17 23 -8 0 -20 -6 -26
-14z"/>
<path d="M2060 1254 c0 -14 24 -35 36 -33 24 4 34 -3 35 -23 l0 -23 9 23 c11
26 14 27 34 6 15 -14 16 -14 16 5 0 13 -7 21 -17 22 -37 1 -67 10 -74 20 -4 8
-8 7 -12 -2 -4 -12 -7 -11 -16 1 -6 8 -11 10 -11 4z"/>
<path d="M3430 1215 c0 -27 2 -46 4 -44 8 8 10 78 3 85 -4 4 -7 -14 -7 -41z"/>
<path d="M3480 1249 c0 -5 -3 -8 -7 -6 -5 3 -9 -13 -10 -35 -1 -28 2 -37 9
-30 10 10 20 82 11 82 -1 0 -3 -5 -3 -11z"/>
<path d="M3500 1219 c0 -22 4 -38 8 -35 8 5 4 76 -4 76 -2 0 -4 -18 -4 -41z"/>
<path d="M4186 1253 c-9 -10 -36 -15 -73 -15 -19 -1 -33 -6 -33 -13 0 -16 122
6 128 23 4 13 -10 16 -22 5z"/>
<path d="M4267 1249 c8 -8 16 -8 30 0 16 9 14 10 -11 11 -22 0 -27 -3 -19 -11z"/>
<path d="M3117 1237 c-3 -8 -1 -20 4 -28 6 -10 9 -7 9 14 0 29 -5 35 -13 14z"/>
<path d="M2201 1203 c1 -10 5 -29 9 -43 l8 -25 1 27 c1 14 4 33 7 42 4 11 1
16 -10 16 -9 0 -16 -8 -15 -17z"/>
<path d="M96 1202 c-3 -2 -2 -11 1 -20 4 -10 2 -13 -5 -8 -7 4 -12 2 -12 -3 0
-6 15 -10 35 -8 19 1 35 6 35 10 0 5 6 5 13 0 20 -12 37 -12 37 1 0 11 -95 37
-104 28z"/>
<path d="M861 1189 c0 -8 -8 -24 -16 -35 -9 -10 -14 -13 -13 -5 2 7 -3 16 -9
18 -8 3 -13 -4 -13 -16 0 -11 -5 -23 -11 -26 -6 -5 -3 -13 10 -22 12 -8 25
-12 30 -9 5 4 12 0 14 -6 4 -10 8 -9 16 2 8 11 7 16 -4 18 -18 4 -20 23 -4 39
6 6 9 21 6 34 -2 13 -5 17 -6 8z"/>
<path d="M2240 1186 c0 -9 7 -13 20 -11 11 2 20 -1 20 -7 0 -6 9 -8 20 -5 26
7 49 -12 58 -48 6 -20 16 -31 30 -33 29 -4 28 7 -4 37 -13 13 -23 29 -21 35 2
6 -19 19 -47 28 -64 21 -76 22 -76 4z"/>
<path d="M216 1182 c-3 -2 -3 -9 0 -13 8 -13 48 -11 62 3 9 9 12 9 12 -1 0 -8
6 -11 15 -7 10 3 15 -1 16 -12 0 -14 2 -14 8 3 5 12 4 23 -3 27 -12 8 -102 8
-110 0z"/>
<path d="M466 1173 c-4 -11 1 -13 19 -11 14 2 26 8 25 13 0 16 -38 14 -44 -2z"/>
<path d="M3903 1170 c-1 -11 2 -18 8 -15 11 7 12 35 1 35 -4 0 -8 -9 -9 -20z"/>
<path d="M392 1168 c5 -15 28 -23 28 -10 0 5 -7 13 -16 16 -10 4 -14 1 -12 -6z"/>
<path d="M530 1165 c0 -8 5 -15 10 -15 25 0 6 -18 -25 -24 -32 -6 -62 -36 -49
-49 10 -10 33 4 28 17 -4 9 6 12 33 10 57 -3 59 -4 44 -13 -11 -7 -11 -10 0
-17 7 -4 14 -3 17 4 2 7 10 12 18 12 27 0 14 21 -17 27 -20 4 -28 10 -25 19 3
8 1 14 -5 14 -6 0 -8 4 -5 9 3 5 -1 11 -9 15 -9 3 -15 0 -15 -9z"/>
<path d="M650 1160 c0 -11 -7 -20 -15 -20 -8 0 -15 -4 -15 -10 0 -14 64 -12
78 2 7 7 12 21 12 31 0 16 -3 17 -14 8 -10 -8 -16 -9 -21 -1 -10 17 -25 11
-25 -10z"/>
<path d="M725 1160 c-3 -5 -4 -10 -1 -10 2 0 11 -3 20 -6 11 -4 16 -1 16 10 0
18 -25 22 -35 6z"/>
<path d="M902 1152 c-12 -11 -19 -22 -16 -25 3 -3 15 4 26 15 26 26 18 34 -10
10z"/>
<path d="M3060 1159 c0 -5 4 -8 9 -5 5 4 11 1 13 -6 3 -8 7 -6 11 5 5 12 1 17
-13 17 -11 0 -20 -5 -20 -11z"/>
<path d="M5 1150 c8 -13 46 -19 42 -7 -2 7 -13 13 -25 13 -12 1 -19 -2 -17 -6z"/>
<path d="M437 1139 c-6 -22 6 -25 22 -5 9 10 8 15 -3 19 -8 3 -16 -2 -19 -14z"/>
<path d="M984 1136 c-22 -12 -25 -35 -7 -53 16 -17 38 -16 53 2 8 9 8 15 2 15
-6 0 -12 -5 -14 -12 -3 -7 -11 -9 -24 -3 -17 7 -17 8 -1 12 9 3 17 11 17 18 0
7 5 15 12 17 8 3 7 6 -3 10 -8 3 -24 1 -35 -6z"/>
<path d="M2100 1140 c0 -14 15 -19 29 -11 9 6 7 10 -8 14 -12 3 -21 1 -21 -3z"/>
<path d="M210 1131 c0 -11 40 -22 52 -15 5 3 6 10 3 15 -8 12 -55 12 -55 0z"/>
<path d="M405 1128 c-4 -10 -13 -18 -21 -18 -8 0 -14 -4 -14 -10 0 -14 11 -12
34 5 10 7 16 20 13 27 -3 9 -7 8 -12 -4z"/>
<path d="M1216 1121 c-19 -21 -42 -29 -31 -11 4 6 -5 10 -20 10 -15 0 -24 -4
-20 -10 3 -5 -2 -10 -12 -10 -12 -1 -8 -5 12 -14 18 -8 32 -9 36 -4 3 6 9 3
12 -6 10 -24 27 -19 27 8 0 13 5 26 12 28 6 2 9 10 7 17 -3 9 -10 6 -23 -8z"/>
<path d="M2300 1127 c0 -8 -6 -20 -14 -26 -11 -9 -18 -8 -30 4 -9 9 -21 13
-27 9 -6 -3 -15 -1 -19 6 -5 8 -10 3 -14 -15 -4 -15 -6 -29 -4 -30 2 -1 28 0
60 2 50 5 57 8 61 29 2 14 0 27 -4 30 -5 3 -9 -1 -9 -9z"/>
<path d="M920 1115 c-10 -12 -10 -18 0 -30 18 -22 30 -18 30 9 0 31 -14 40
-30 21z"/>
<path d="M130 1099 c7 -11 14 -19 16 -16 7 7 -7 37 -17 37 -6 0 -5 -9 1 -21z"/>
<path d="M2320 1099 c0 -24 23 -21 28 4 2 10 -3 17 -12 17 -10 0 -16 -9 -16
-21z"/>
<path d="M3436 1113 c-10 -10 -7 -25 3 -18 6 3 12 -14 14 -37 l4 -43 1 47 c2
44 -7 65 -22 51z"/>
<path d="M3923 1082 c-2 -37 -2 -37 7 -7 5 16 6 33 2 37 -4 4 -9 -9 -9 -30z"/>
<path d="M1060 1101 c0 -5 6 -11 13 -14 8 -3 14 1 14 9 0 8 -6 14 -14 14 -7 0
-13 -4 -13 -9z"/>
<path d="M744 1082 c-21 -18 -21 -18 17 -19 33 -2 60 11 48 21 -16 14 -47 12
-65 -2z"/>
<path d="M90 1075 c14 -16 40 -20 40 -6 0 9 -24 21 -42 21 -6 0 -6 -6 2 -15z"/>
<path d="M170 1065 c0 -14 4 -25 9 -25 4 0 6 11 3 25 -2 14 -6 25 -8 25 -2 0
-4 -11 -4 -25z"/>
<path d="M624 1075 c-17 -13 -17 -14 -1 -15 9 0 17 5 17 10 0 6 7 10 15 10 8
0 15 -4 15 -10 0 -5 7 -10 15 -10 23 0 18 17 -7 24 -31 8 -32 8 -54 -9z"/>
<path d="M1348 1062 c-16 -2 -28 -9 -28 -18 0 -10 8 -13 25 -10 14 3 37 -2 52
-9 15 -8 31 -11 36 -8 6 4 0 10 -14 15 -13 5 -28 14 -34 21 -5 7 -22 11 -37 9z"/>
<path d="M845 1040 c-6 -18 -8 -19 -29 -4 -21 13 -24 13 -30 -2 -9 -22 -7 -23
45 -28 24 -3 52 -7 61 -11 11 -4 20 1 28 16 9 17 14 19 20 8 8 -12 75 -17 87
-6 7 7 -16 47 -27 47 -6 0 -10 -9 -10 -21 l0 -20 -29 20 c-31 23 -46 27 -36
11 3 -5 2 -10 -4 -10 -5 0 -12 -8 -14 -17 -4 -17 -5 -17 -6 0 -1 18 -21 25
-21 7 0 -5 -4 -10 -10 -10 -5 0 -7 6 -4 14 3 8 1 17 -5 20 -5 4 -12 -3 -16
-14z"/>
<path d="M1246 1052 c-3 -3 -6 -15 -6 -26 0 -16 3 -18 9 -7 6 10 13 11 29 2
12 -7 23 -7 26 -2 7 10 -50 42 -58 33z"/>
<path d="M60 1027 c0 -5 -5 -5 -12 -1 -7 4 -8 3 -4 -4 10 -16 41 -15 55 2 10
11 7 14 -14 12 -14 0 -25 -5 -25 -9z"/>
<path d="M300 1030 c8 -5 22 -10 30 -10 13 0 13 1 0 10 -8 5 -22 10 -30 10
-13 0 -13 -1 0 -10z"/>
<path d="M1486 1025 c-8 -8 -19 -15 -25 -15 -6 0 -11 -4 -11 -9 0 -9 68 -6 78
3 7 8 -6 36 -17 36 -5 0 -16 -7 -25 -15z"/>
<path d="M600 1010 c17 -11 57 -14 46 -3 -4 4 -19 9 -34 10 -21 3 -24 1 -12
-7z"/>
<path d="M2844 1005 c15 -16 106 -28 132 -18 30 11 12 18 -42 15 -39 -3 -54
-1 -50 7 5 7 -4 11 -24 11 -28 0 -30 -2 -16 -15z"/>
<path d="M1108 1003 c-21 -5 -24 -23 -4 -23 8 0 16 7 20 15 3 8 4 14 3 14 -1
-1 -10 -3 -19 -6z"/>
<path d="M3735 992 c-42 -5 -55 -20 -31 -38 23 -16 36 -18 36 -4 0 6 -8 10
-17 10 -40 0 6 20 50 21 26 1 47 6 47 11 0 8 -12 8 -85 0z"/>
<path d="M2040 970 c0 -5 13 -10 29 -10 17 0 33 5 36 10 4 6 -8 10 -29 10 -20
0 -36 -4 -36 -10z"/>
<path d="M2781 955 c20 -21 159 -28 166 -9 3 8 -19 12 -69 11 -40 0 -82 3 -93
8 -19 7 -19 7 -4 -10z"/>
<path d="M928 948 c-4 -8 3 -13 18 -13 13 0 23 5 21 10 -5 15 -34 18 -39 3z"/>
<path d="M3306 935 c4 -8 1 -15 -5 -15 -6 0 -11 5 -11 10 0 12 -37 13 -44 2
-3 -5 -19 -7 -36 -4 -16 2 -30 0 -30 -6 0 -6 -28 -8 -75 -5 -52 4 -75 2 -75
-6 0 -18 301 -15 326 4 18 14 18 14 -6 15 -23 1 -23 2 -5 10 17 7 15 9 -12 9
-25 1 -31 -3 -27 -14z"/>
<path d="M76 888 c6 -51 3 -54 -25 -38 -13 6 -17 17 -14 35 3 15 1 25 -6 25
-6 0 -11 -9 -11 -21 0 -11 -4 -17 -10 -14 -6 4 -10 -8 -10 -30 0 -32 2 -35 22
-30 13 3 34 6 48 7 38 1 273 28 287 33 6 2 9 13 6 26 -6 21 -7 21 -20 4 -9
-14 -13 -15 -13 -4 0 12 -2 12 -9 0 -12 -18 -45 -6 -37 14 8 21 -10 19 -26 -3
-7 -10 -19 -22 -27 -26 -10 -7 -12 -2 -6 25 7 29 6 32 -8 21 -12 -10 -16 -10
-21 0 -3 7 -3 -2 0 -20 l6 -33 -56 2 c-40 2 -56 6 -56 16 0 8 5 11 13 8 6 -4
5 -1 -4 7 -9 7 -19 20 -22 28 -4 8 -4 -6 -1 -32z"/>
<path d="M1978 922 c-10 -2 -18 -8 -18 -13 0 -13 27 -11 35 2 9 13 4 16 -17
11z"/>
<path d="M577 906 c-16 -13 -16 -14 -1 -20 21 -8 42 10 29 23 -6 6 -17 5 -28
-3z"/>
<path d="M2990 905 c0 -9 6 -12 15 -9 8 4 12 10 9 15 -8 14 -24 10 -24 -6z"/>
<path d="M4391 902 c-9 -17 -7 -19 15 -19 21 0 23 2 12 16 -7 9 -13 18 -14 19
-1 2 -7 -5 -13 -16z"/>
<path d="M370 898 c1 -33 17 -41 71 -34 30 3 60 6 67 6 6 0 12 10 11 23 0 12
-3 17 -5 11 -3 -8 -16 -9 -42 -3 -27 6 -40 5 -47 -5 -9 -11 -12 -11 -23 0 -16
17 -32 18 -32 2z"/>
<path d="M1627 901 c-16 -6 -16 -9 -3 -26 13 -18 15 -18 21 -3 4 9 12 15 19
12 7 -3 13 1 13 9 0 14 -22 18 -50 8z"/>
<path d="M3600 900 c0 -4 13 -10 29 -12 17 -2 28 -1 26 3 -7 10 -55 18 -55 9z"/>
<path d="M1556 893 c-8 -9 -14 -10 -53 -12 -25 -1 -26 -2 -8 -15 19 -14 44
-11 56 7 4 5 15 4 28 -2 17 -10 21 -9 21 4 0 9 -4 13 -10 10 -5 -3 -10 -1 -10
4 0 13 -13 14 -24 4z"/>
<path d="M2213 884 c-6 -16 16 -38 27 -27 3 3 -1 8 -7 10 -25 9 -13 19 24 21
52 4 55 12 4 12 -29 0 -43 -5 -48 -16z"/>
<path d="M2800 892 c0 -10 38 -13 44 -3 3 3 -6 8 -20 9 -13 1 -24 -2 -24 -6z"/>
<path d="M3400 850 c0 -5 10 -10 23 -10 18 0 19 2 7 10 -19 13 -30 13 -30 0z"/>
<path d="M1760 840 c0 -5 11 -9 25 -8 14 1 25 6 25 10 0 4 -11 8 -25 8 -14 0
-25 -4 -25 -10z"/>
<path d="M3573 819 c-2 -17 1 -18 12 -9 8 7 12 16 9 21 -9 16 -20 10 -21 -12z"/>
<path d="M2292 818 c-7 -7 -12 -17 -12 -22 0 -6 5 -4 10 4 13 20 14 -5 1 -29
-7 -13 -6 -18 4 -18 7 0 13 7 13 16 -1 9 2 26 6 39 8 24 -3 29 -22 10z"/>
<path d="M2914 819 c-2 -4 -1 -9 3 -11 19 -9 148 4 160 15 2 3 -32 4 -77 4
-44 0 -83 -4 -86 -8z"/>
<path d="M3420 805 c7 -8 17 -12 22 -9 6 4 5 10 -3 15 -22 14 -33 10 -19 -6z"/>
<path d="M2098 798 c-9 -23 3 -38 30 -37 15 0 21 3 15 6 -7 2 -13 9 -13 14 0
6 5 7 10 4 6 -3 10 -1 10 4 0 6 -4 11 -9 11 -5 0 -16 3 -24 6 -8 3 -17 -1 -19
-8z"/>
<path d="M1644 788 c12 -7 21 -7 28 0 6 6 0 10 -18 10 -23 0 -24 -2 -10 -10z"/>
<path d="M1180 779 c-18 -5 -10 -7 29 -8 30 -1 51 2 47 7 -10 9 -44 10 -76 1z"/>
<path d="M3581 772 c-1 -25 20 -26 27 -1 3 12 2 12 -6 0 -8 -11 -11 -10 -15 5
-4 16 -5 15 -6 -4z"/>
<path d="M1043 773 c-21 -8 -15 -22 7 -16 11 3 20 9 20 14 0 10 -8 10 -27 2z"/>
<path d="M1536 772 c2 -3 -4 -11 -14 -18 -19 -15 -5 -19 18 -4 10 6 12 12 4
18 -6 5 -9 7 -8 4z"/>
<path d="M1394 758 c10 -5 23 -5 34 1 14 8 10 10 -16 9 -26 -1 -30 -3 -18 -10z"/>
<path d="M3110 759 c0 -13 14 -17 35 -9 17 6 16 7 -8 12 -15 3 -27 2 -27 -3z"/>
<path d="M3415 760 c3 -5 18 -10 32 -10 32 0 25 9 -12 16 -17 3 -24 1 -20 -6z"/>
<path d="M1575 741 c-2 -5 4 -11 15 -14 11 -3 20 -2 20 3 0 12 -28 21 -35 11z"/>
<path d="M506 731 c-4 -5 -2 -12 4 -16 5 -3 10 0 10 7 0 10 3 9 11 -2 9 -12
10 -12 7 -1 -5 18 -24 25 -32 12z"/>
<path d="M3480 730 l-45 -6 35 -4 c19 -3 49 -2 65 1 50 11 11 17 -55 9z"/>
<path d="M3711 731 c-8 -5 -10 -14 -6 -21 6 -9 9 -9 16 1 5 9 10 5 14 -14 4
-15 11 -24 16 -21 13 8 42 -24 33 -37 -4 -8 -3 -9 4 -5 7 4 12 16 12 27 0 11
-4 18 -9 14 -6 -3 -15 4 -21 16 -7 11 -14 18 -18 15 -3 -4 -11 2 -17 13 -7 14
-15 17 -24 12z"/>
<path d="M1678 709 c-15 -16 -15 -19 -3 -19 8 0 15 5 15 11 0 5 5 7 10 4 6 -3
10 1 10 9 0 21 -11 19 -32 -5z"/>
<path d="M3396 722 c-3 -6 -1 -14 5 -17 15 -10 25 3 12 16 -7 7 -13 7 -17 1z"/>
<path d="M2010 708 c0 -11 28 -10 35 1 3 6 -4 9 -15 8 -11 -1 -20 -5 -20 -9z"/>
<path d="M1580 698 c0 -4 14 -8 30 -8 17 0 30 2 30 4 0 2 -13 6 -30 8 -16 3
-30 1 -30 -4z"/>
<path d="M1005 689 c-4 -6 -4 -13 -1 -16 3 -4 6 -1 6 5 0 6 6 9 14 6 8 -3 17
-1 21 5 3 7 -2 11 -14 11 -11 0 -23 -5 -26 -11z"/>
<path d="M4134 692 c8 -14 58 -22 53 -9 -2 6 -16 12 -31 14 -15 2 -25 0 -22
-5z"/>
<path d="M1341 681 c-23 -15 -2 -30 39 -28 22 1 40 5 40 9 0 8 -6 10 -37 11
-10 1 -20 5 -23 9 -3 4 -12 3 -19 -1z"/>
<path d="M2252 675 c8 -5 17 -18 21 -27 4 -11 13 -15 28 -11 l23 6 -22 10
c-12 6 -22 16 -22 23 0 7 -9 12 -21 11 -16 -1 -18 -3 -7 -12z"/>
<path d="M3150 678 c0 -4 9 -12 20 -18 17 -9 20 -8 20 8 0 11 -7 18 -20 18
-11 0 -20 -4 -20 -8z"/>
<path d="M356 649 c7 -13 54 -16 54 -5 0 7 -13 12 -29 11 -16 0 -27 -3 -25 -6z"/>
<path d="M423 646 c-3 -4 16 -6 43 -3 26 2 61 1 76 -4 16 -4 28 -4 28 1 0 19
-136 24 -147 6z"/>
<path d="M785 650 c5 -9 43 -6 52 3 4 4 -7 7 -24 5 -18 -1 -30 -5 -28 -8z"/>
<path d="M1738 648 c-5 -13 -11 -14 -78 -17 -16 0 -30 -6 -30 -11 0 -17 85 -8
109 11 12 10 17 20 12 23 -5 4 -11 0 -13 -6z"/>
<path d="M3630 635 c7 -8 17 -15 22 -15 6 0 5 7 -2 15 -7 8 -17 15 -22 15 -6
0 -5 -7 2 -15z"/>
<path d="M1190 627 c0 -8 7 -14 15 -14 8 0 15 6 15 14 0 7 -7 13 -15 13 -8 0
-15 -6 -15 -13z"/>
<path d="M2190 623 c0 -12 9 -27 20 -33 17 -9 20 -8 20 10 0 12 -4 19 -9 15
-6 -3 -14 3 -20 12 -9 16 -10 16 -11 -4z"/>
<path d="M1006 621 c-3 -5 6 -8 19 -8 14 0 25 3 25 8 0 5 -9 9 -19 9 -11 0
-22 -4 -25 -9z"/>
<path d="M1111 618 c-1 -10 6 -18 14 -18 8 0 15 5 15 11 0 5 -4 8 -9 5 -5 -4
-12 0 -14 6 -3 8 -6 6 -6 -4z"/>
<path d="M3000 621 c0 -5 7 -11 15 -15 9 -3 15 0 15 9 0 8 -7 15 -15 15 -8 0
-15 -4 -15 -9z"/>
<path d="M3820 615 c0 -8 5 -15 10 -15 6 0 10 6 10 13 0 8 2 9 8 1 4 -6 17
-14 30 -18 12 -4 22 -11 22 -16 0 -8 38 -23 53 -21 4 1 7 -5 7 -11 0 -9 4 -8
10 2 6 9 10 10 10 3 0 -8 17 -11 49 -10 45 2 48 3 35 18 -15 17 -59 15 -48 -2
3 -5 0 -9 -5 -9 -6 0 -11 6 -11 13 0 8 -13 12 -35 11 -23 -1 -35 3 -35 11 0 7
-22 20 -49 29 -61 20 -61 20 -61 1z"/>
<path d="M665 600 c-7 -12 2 -12 30 0 19 8 19 9 -2 9 -12 1 -25 -3 -28 -9z"/>
<path d="M2065 600 c-3 -5 1 -10 9 -10 8 0 18 5 21 10 3 6 -1 10 -9 10 -8 0
-18 -4 -21 -10z"/>
<path d="M60 590 c19 -13 30 -13 30 0 0 6 -10 10 -22 10 -19 0 -20 -2 -8 -10z"/>
<path d="M244 585 c-19 -14 -18 -14 4 -15 13 0 22 6 22 15 0 19 -1 19 -26 0z"/>
<path d="M456 592 c-2 -4 11 -6 30 -4 19 2 34 6 34 8 0 8 -59 4 -64 -4z"/>
<path d="M1866 591 c-19 -7 -19 -8 2 -13 15 -4 22 -2 22 8 0 8 -1 14 -2 13 -2
0 -12 -4 -22 -8z"/>
<path d="M2140 591 c0 -13 48 -46 56 -38 3 2 -9 15 -25 27 -17 12 -31 17 -31
11z"/>
<path d="M286 581 c-6 -9 102 -7 111 3 4 3 -19 6 -50 6 -31 0 -58 -4 -61 -9z"/>
<path d="M2370 581 c0 -5 11 -16 24 -24 21 -14 25 -14 30 -2 3 8 1 17 -4 20
-17 11 -50 14 -50 6z"/>
<path d="M2998 578 c4 -3 32 -7 62 -8 80 -2 92 -1 85 10 -3 5 -39 8 -80 7 -41
-1 -71 -5 -67 -9z"/>
<path d="M1762 570 c5 -17 86 -44 160 -55 15 -2 37 -6 48 -10 11 -3 20 -2 20
3 0 11 -27 19 -96 27 -26 4 -54 10 -60 16 -6 5 -13 6 -17 3 -3 -3 -18 2 -33
12 -21 14 -26 15 -22 4z"/>
<path d="M1264 558 c-3 -4 -2 -8 3 -9 74 -5 93 -4 93 5 0 5 11 -1 25 -14 15
-14 36 -23 57 -23 71 0 168 -19 168 -33 0 -8 5 -14 10 -14 6 0 10 4 10 8 0 13
-36 43 -42 36 -4 -3 -15 -1 -25 4 -10 6 -50 12 -87 14 -49 2 -71 7 -80 19 -8
12 -27 16 -69 16 -32 0 -60 -4 -63 -9z"/>
<path d="M1565 559 c-4 -5 5 -9 19 -9 14 0 26 4 26 8 0 11 -39 12 -45 1z"/>
<path d="M1956 560 c6 -6 24 -13 40 -16 38 -7 20 11 -21 20 -22 6 -27 4 -19
-4z"/>
<path d="M3720 562 c0 -18 17 -23 42 -13 16 7 18 10 6 10 -9 1 -23 4 -32 7 -9
3 -16 1 -16 -4z"/>
<path d="M4170 559 c0 -5 -17 -9 -38 -9 -38 0 -38 -1 -34 -32 l5 -33 10 30 c9
27 11 28 18 10 8 -20 8 -20 8 0 1 17 3 18 11 5 9 -13 11 -13 20 0 5 8 10 11
10 6 0 -5 6 -3 13 3 8 6 18 7 22 3 5 -4 5 -2 2 4 -8 15 -47 25 -47 13z"/>
<path d="M40 550 c0 -6 21 -10 47 -10 56 0 54 6 -4 14 -25 3 -43 1 -43 -4z"/>
<path d="M1620 551 c0 -5 12 -11 27 -14 26 -5 26 -4 8 9 -22 16 -35 18 -35 5z"/>
<path d="M4267 543 c3 -7 0 -13 -6 -13 -8 0 -7 -6 1 -20 7 -11 20 -20 28 -19
10 0 11 2 3 6 -15 5 -18 33 -3 33 5 0 14 -8 19 -17 6 -10 11 -13 11 -6 0 6 9
15 21 18 30 10 11 23 -38 28 -31 3 -40 1 -36 -10z"/>
<path d="M360 546 c0 -2 14 -6 30 -8 17 -3 30 -1 30 4 0 4 -13 8 -30 8 -16 0
-30 -2 -30 -4z"/>
<path d="M960 542 c0 -5 14 -9 30 -9 17 0 30 4 30 9 0 4 -13 8 -30 8 -16 0
-30 -4 -30 -8z"/>
<path d="M2031 546 c3 -3 23 -8 45 -12 21 -3 42 -8 47 -11 4 -2 7 1 7 6 0 6
-10 11 -22 12 -13 0 -36 3 -53 5 -16 3 -27 3 -24 0z"/>
<path d="M858 533 c17 -7 15 -23 -4 -23 -8 0 -13 -4 -10 -9 7 -10 31 -9 42 2
9 8 -15 37 -30 36 -7 0 -6 -2 2 -6z"/>
<path d="M1174 522 c1 -17 19 -17 24 0 3 10 1 10 -6 -1 -9 -12 -11 -12 -14 0
-3 9 -5 10 -4 1z"/>
<path d="M1698 526 c12 -6 19 -15 16 -19 -4 -4 4 -7 19 -7 14 0 34 -3 44 -7
16 -6 16 -5 4 10 -7 9 -24 17 -37 17 -13 0 -24 4 -24 8 0 4 -10 8 -22 9 l-23
2 23 -13z"/>
<path d="M2200 530 c-21 -6 -22 -8 -7 -14 37 -13 47 -15 47 -8 -1 19 -17 28
-40 22z"/>
<path d="M2290 528 c0 -11 8 -18 20 -18 11 0 20 5 20 11 0 5 -5 7 -11 3 -6 -3
-15 0 -20 7 -7 11 -9 10 -9 -3z"/>
<path d="M2510 529 c0 -5 -6 -7 -12 -3 -9 5 -10 4 -3 -4 12 -13 58 -4 49 9 -7
13 -34 11 -34 -2z"/>
<path d="M4454 529 c-3 -6 -1 -16 6 -22 10 -9 11 -9 6 1 -5 8 0 12 13 12 12 0
21 5 21 10 0 13 -37 13 -46 -1z"/>
<path d="M592 510 c5 -17 58 -27 58 -11 0 6 -7 8 -15 5 -8 -4 -23 0 -32 7 -14
12 -16 12 -11 -1z"/>
<path d="M1264 511 c-11 -12 0 -17 36 -18 25 -1 40 4 40 11 0 12 -65 17 -76 7z"/>
<path d="M2581 507 c-15 -15 -14 -24 2 -30 7 -3 19 3 25 13 8 14 8 19 -2 23
-8 3 -19 0 -25 -6z"/>
<path d="M3906 508 c3 -4 18 -8 35 -8 16 0 29 4 29 8 0 5 -16 9 -35 9 -19 0
-32 -4 -29 -9z"/>
<path d="M200 501 c0 -5 11 -8 25 -8 13 0 22 3 19 8 -3 5 -14 9 -25 9 -10 0
-19 -4 -19 -9z"/>
<path d="M730 496 c6 -6 18 -5 32 2 22 10 21 11 -9 9 -21 -1 -29 -5 -23 -11z"/>
<path d="M1010 500 c0 -14 30 -27 65 -29 59 -3 80 -3 100 -2 36 4 -24 22 -74
23 -26 0 -56 4 -68 9 -14 5 -23 5 -23 -1z"/>
<path d="M2010 501 c0 -4 8 -8 18 -8 9 0 33 -2 52 -6 69 -13 103 -16 94 -7 -5
5 -38 14 -74 19 -79 13 -90 13 -90 2z"/>
<path d="M2350 500 c0 -5 5 -10 11 -10 5 0 7 -5 4 -10 -4 -6 -11 -7 -17 -4 -6
4 -8 1 -6 -7 3 -8 12 -12 19 -10 8 2 20 4 27 4 18 1 14 10 -13 30 -14 10 -25
13 -25 7z"/>
<path d="M4365 489 c11 -13 21 -26 23 -28 1 -3 1 6 -1 20 -2 14 -12 26 -23 28
-18 3 -18 2 1 -20z"/>
<path d="M1830 489 c0 -5 8 -9 18 -10 17 -1 33 -3 85 -13 17 -4 26 -2 22 4 -3
6 -16 10 -29 10 -12 0 -26 3 -29 6 -10 11 -67 13 -67 3z"/>
<path d="M3105 490 c-3 -5 -12 -7 -19 -4 -7 3 -18 -1 -24 -9 -10 -11 -2 -14
46 -17 106 -6 115 -5 120 9 4 11 -8 13 -57 9 -56 -4 -79 3 -48 15 9 4 9 6 0 6
-6 1 -14 -3 -18 -9z"/>
<path d="M1646 481 c-8 -12 47 -22 59 -10 7 7 4 8 -7 4 -11 -4 -18 -2 -18 4 0
13 -26 15 -34 2z"/>
<path d="M1252 465 c4 -4 44 -9 89 -12 45 -2 90 -8 99 -13 17 -9 49 3 33 13
-14 9 -229 20 -221 12z"/>
<path d="M2781 463 c4 -21 -2 -34 -13 -27 -7 4 -8 3 -4 -4 4 -7 11 -12 15 -12
13 0 21 39 10 46 -5 3 -9 2 -8 -3z"/>
<path d="M2994 456 c-8 -22 -2 -27 16 -16 12 7 12 12 3 21 -10 10 -14 9 -19
-5z"/>
<path d="M3587 463 c-4 -3 -7 -11 -7 -17 0 -6 5 -4 10 4 6 10 10 11 10 3 0 -7
7 -13 15 -13 20 0 19 16 -1 24 -19 7 -19 7 -27 -1z"/>
<path d="M3814 456 c-3 -8 -12 -12 -20 -9 -8 3 -14 0 -14 -6 0 -19 29 -12 40
9 6 11 8 20 5 20 -3 0 -8 -6 -11 -14z"/>
<path d="M2000 452 c0 -4 9 -8 20 -9 11 -1 20 2 20 8 0 5 -9 9 -20 9 -11 0
-20 -4 -20 -8z"/>
<path d="M960 430 c6 -11 12 -20 13 -20 2 0 3 9 3 20 0 11 -6 20 -13 20 -11 0
-11 -5 -3 -20z"/>
<path d="M1635 440 c-4 -6 5 -10 20 -10 15 0 24 4 20 10 -3 6 -12 10 -20 10
-8 0 -17 -4 -20 -10z"/>
<path d="M3308 438 c-7 -4 20 -8 61 -8 41 0 72 3 68 6 -9 9 -115 11 -129 2z"/>
<path d="M580 433 c0 -4 21 -9 48 -10 26 -1 62 -4 80 -6 18 -3 35 -1 38 4 3 5
16 2 30 -7 22 -15 24 -15 24 0 0 9 -8 16 -17 17 -10 0 -60 3 -110 5 -51 3 -93
1 -93 -3z"/>
<path d="M2064 429 c-2 -4 3 -6 12 -5 9 1 36 -1 60 -4 25 -4 47 -3 50 2 3 4
-7 9 -23 9 -15 1 -43 2 -61 3 -18 1 -35 -1 -38 -5z"/>
<path d="M2586 425 c-3 -9 -10 -14 -15 -11 -5 4 -12 -7 -16 -24 -4 -16 -11
-28 -17 -27 -6 1 -13 -5 -15 -13 -4 -13 -3 -13 6 0 6 8 11 12 11 7 0 -11 50
23 50 35 0 5 -6 6 -12 2 -7 -4 -4 2 6 14 11 12 17 25 14 27 -3 3 -8 -1 -12
-10z"/>
<path d="M1590 418 c0 -6 3 -8 6 -5 4 3 18 -3 32 -13 32 -26 43 -17 11 9 -27
23 -49 27 -49 9z"/>
<path d="M1170 411 c0 -5 9 -7 19 -4 10 3 28 0 40 -6 17 -10 21 -9 21 4 0 11
-11 15 -40 15 -22 0 -40 -4 -40 -9z"/>
<path d="M1270 408 c0 -8 25 -12 70 -10 13 1 28 -4 32 -11 5 -8 8 -5 8 8 0 17
-7 20 -55 21 -30 0 -55 -3 -55 -8z"/>
<path d="M150 400 c0 -4 9 -10 20 -13 11 -3 20 -2 20 3 0 4 -9 10 -20 13 -11
3 -20 2 -20 -3z"/>
<path d="M235 399 c-24 -9 -23 -9 33 -13 23 -1 42 1 42 6 0 4 -3 9 -7 9 -31 6
-51 5 -68 -2z"/>
<path d="M326 395 c-3 -9 9 -12 41 -11 25 1 53 -4 63 -11 18 -13 53 -13 66 -1
3 4 -2 5 -12 4 -10 -2 -31 4 -46 12 -16 8 -40 12 -54 9 -13 -2 -24 -1 -24 3 0
12 -29 7 -34 -5z"/>
<path d="M2997 397 c3 -5 23 -7 44 -5 21 2 41 0 43 -4 3 -5 3 -3 2 4 -1 8 -20
12 -48 13 -25 0 -44 -4 -41 -8z"/>
<path d="M3350 394 c0 -8 8 -14 18 -15 9 0 27 -2 39 -5 36 -6 37 -6 55 -5 12
1 15 6 11 18 -4 9 -2 14 3 10 6 -3 16 -2 24 4 11 6 6 9 -19 9 -25 0 -32 -3
-27 -15 7 -18 1 -19 -57 -1 -40 12 -47 12 -47 0z"/>
<path d="M3525 400 c-4 -7 8 -10 35 -8 54 3 63 18 11 18 -22 0 -43 -5 -46 -10z"/>
<path d="M1455 390 c3 -5 15 -15 27 -21 16 -9 19 -8 15 3 -2 7 -10 12 -16 11
-6 -2 -11 2 -11 7 0 6 -5 10 -11 10 -5 0 -7 -4 -4 -10z"/>
<path d="M2061 395 c-2 -24 14 -33 32 -20 13 9 15 15 6 20 -6 4 -15 2 -19 -5
-6 -10 -9 -9 -13 1 -3 8 -6 10 -6 4z"/>
<path d="M1043 370 c-1 -11 4 -20 13 -20 16 0 16 2 8 24 -8 22 -19 20 -21 -4z"/>
<path d="M2665 380 c-7 -12 4 -17 44 -22 23 -2 36 2 39 11 3 10 0 12 -12 8 -9
-4 -27 -2 -41 3 -14 5 -27 6 -30 0z"/>
<path d="M0 376 c0 -9 39 -13 51 -5 10 6 4 9 -18 9 -18 0 -33 -2 -33 -4z"/>
<path d="M506 364 c-6 -16 12 -18 32 -5 11 6 9 9 -7 14 -12 3 -22 -1 -25 -9z"/>
<path d="M1760 370 c0 -5 7 -10 15 -10 8 0 15 5 15 10 0 6 -7 10 -15 10 -8 0
-15 -4 -15 -10z"/>
<path d="M1800 372 c0 -4 9 -8 20 -9 11 -1 20 2 20 5 0 4 -9 8 -20 9 -11 1
-20 -2 -20 -5z"/>
<path d="M2474 365 c17 -17 36 -20 36 -4 0 5 -4 8 -9 4 -5 -3 -12 -1 -16 5 -3
5 -11 10 -16 10 -6 0 -4 -7 5 -15z"/>
<path d="M1515 360 c4 -6 15 -8 26 -5 11 4 19 2 19 -4 0 -6 4 -11 10 -11 5 0
7 7 4 15 -4 9 -19 15 -36 15 -18 0 -27 -4 -23 -10z"/>
<path d="M2873 350 c2 -27 27 -34 42 -13 8 10 11 20 9 23 -3 2 -9 -1 -13 -9
-6 -10 -11 -9 -24 3 -14 15 -16 14 -14 -4z"/>
<path d="M4173 363 c-22 -8 -14 -23 12 -21 14 1 24 7 22 12 -4 12 -18 16 -34
9z"/>
<path d="M119 350 c-6 -4 5 -9 25 -12 21 -2 35 0 33 6 -4 11 -42 15 -58 6z"/>
<path d="M190 346 c0 -7 14 -11 35 -11 40 2 60 15 24 16 -13 0 -32 2 -41 4
-10 2 -18 -2 -18 -9z"/>
<path d="M1197 343 c3 -7 9 -11 13 -8 5 3 11 1 15 -5 11 -18 25 -11 25 13 0
18 -2 19 -10 7 -5 -8 -10 -10 -10 -5 0 6 -8 11 -19 11 -11 0 -17 -5 -14 -13z"/>
<path d="M4100 347 c0 -5 6 -7 14 -4 8 3 17 1 20 -6 2 -7 5 -5 5 5 1 11 -6 16
-19 15 -11 -1 -20 -5 -20 -10z"/>
<path d="M4265 350 c3 -5 15 -10 26 -10 11 0 17 5 14 10 -3 6 -15 10 -26 10
-11 0 -17 -4 -14 -10z"/>
<path d="M4370 350 c0 -5 7 -10 15 -10 8 0 15 5 15 10 0 6 -7 10 -15 10 -8 0
-15 -4 -15 -10z"/>
<path d="M4417 343 c-14 -17 -14 -18 7 -18 17 0 22 5 18 18 -2 9 -5 17 -7 17
-1 0 -9 -8 -18 -17z"/>
<path d="M962 333 c-6 -2 -10 -9 -7 -13 7 -11 35 -2 35 11 0 10 -8 10 -28 2z"/>
<path d="M1045 332 c-12 -12 -4 -20 15 -15 11 3 20 9 20 12 0 9 -27 10 -35 3z"/>
<path d="M1315 330 c-5 -9 53 -25 61 -17 3 3 -9 9 -25 15 -17 6 -33 7 -36 2z"/>
<path d="M624 321 c-11 -12 -1 -17 26 -13 36 5 40 23 4 20 -14 -2 -27 -4 -30
-7z"/>
<path d="M824 319 c-6 -10 2 -12 29 -10 9 1 17 -4 17 -11 0 -18 80 -41 114
-32 20 5 24 9 15 15 -7 4 -19 3 -26 -3 -18 -14 -44 -2 -37 17 3 8 1 15 -5 15
-6 0 -11 -6 -11 -12 0 -9 -4 -8 -10 2 -5 8 -10 11 -10 6 0 -5 -6 -4 -12 1 -20
15 -57 22 -64 12z"/>
<path d="M1390 316 c0 -8 7 -16 15 -20 13 -4 14 -2 5 14 -13 23 -20 26 -20 6z"/>
<path d="M3444 318 c12 -7 21 -7 28 0 6 6 0 10 -18 10 -23 0 -24 -2 -10 -10z"/>
<path d="M3905 319 c-4 -6 -1 -9 6 -8 8 1 34 -2 59 -6 25 -5 53 -9 63 -8 9 0
26 1 37 2 25 1 27 16 3 18 -129 11 -163 12 -168 2z"/>
<path d="M370 316 c0 -10 28 -13 41 -5 10 6 7 9 -13 9 -16 0 -28 -2 -28 -4z"/>
<path d="M544 309 c26 -6 43 -6 50 1 7 7 -6 10 -39 9 l-50 -1 39 -9z"/>
<path d="M2633 307 c3 -7 -4 -19 -14 -25 -10 -7 -19 -18 -19 -25 0 -6 7 -3 15
7 8 11 15 17 15 13 0 -4 8 1 18 11 12 11 14 20 8 24 -17 12 -29 9 -23 -5z"/>
<path d="M3005 312 c-12 -13 -2 -18 32 -17 47 0 54 20 8 21 -19 0 -37 -2 -40
-4z"/>
<path d="M3661 311 c-14 -4 -27 -13 -29 -20 -3 -10 0 -12 12 -8 8 3 15 3 15
-1 -3 -19 2 -33 11 -27 5 3 7 12 3 20 -3 8 -1 15 5 15 5 0 12 7 16 15 6 16 4
17 -33 6z"/>
<path d="M2710 301 c0 -10 7 -12 50 -16 8 0 21 -4 27 -8 9 -6 11 -3 7 7 -3 8
-13 15 -22 14 -9 0 -27 3 -39 7 -15 5 -23 3 -23 -4z"/>
<path d="M3155 290 c-3 -5 1 -10 9 -10 8 0 18 5 21 10 3 6 -1 10 -9 10 -8 0
-18 -4 -21 -10z"/>
<path d="M3762 291 c-10 -6 -10 -10 3 -21 13 -11 15 -9 15 9 0 24 0 24 -18 12z"/>
<path d="M400 281 c0 -6 9 -9 20 -8 11 1 20 5 20 9 0 4 -9 8 -20 8 -11 0 -20
-4 -20 -9z"/>
<path d="M1198 280 c12 -5 22 -15 22 -21 0 -7 3 -9 6 -6 10 10 -16 37 -35 36
-11 0 -9 -3 7 -9z"/>
<path d="M3308 282 c-10 -2 -18 -8 -18 -13 0 -13 27 -11 35 2 9 13 4 16 -17
11z"/>
<path d="M3686 282 c-2 -4 -1 -14 5 -22 7 -13 9 -13 9 0 0 12 2 12 9 2 7 -11
9 -11 14 1 3 9 -1 18 -9 21 -20 8 -22 8 -28 -2z"/>
<path d="M3799 272 c14 -27 32 -38 64 -40 29 -2 39 17 10 20 -10 0 -22 2 -28
3 -5 2 -16 3 -22 4 -7 0 -13 8 -13 16 0 8 -5 15 -10 15 -7 0 -7 -6 -1 -18z"/>
<path d="M1322 269 c2 -6 7 -10 11 -10 4 1 14 1 22 1 26 0 16 16 -11 18 -15 1
-24 -3 -22 -9z"/>
<path d="M2363 255 c0 -8 5 -11 10 -8 6 4 8 -3 4 -17 -4 -16 -3 -20 5 -12 6 6
17 8 24 5 8 -3 14 0 14 6 0 6 -6 11 -14 11 -8 0 -16 7 -20 15 -7 19 -23 19
-23 0z"/>
<path d="M2524 256 c-15 -12 -17 -17 -6 -27 10 -11 12 -9 12 5 0 12 5 16 14
13 10 -4 13 -1 9 9 -6 17 -5 17 -29 0z"/>
<path d="M3420 256 c0 -8 11 -16 25 -19 31 -5 28 13 -3 24 -16 6 -22 5 -22 -5z"/>
<path d="M4210 260 c0 -6 19 -10 42 -10 49 0 46 9 -6 15 -20 3 -36 1 -36 -5z"/>
<path d="M765 250 c-3 -5 3 -10 14 -10 12 0 21 5 21 10 0 6 -6 10 -14 10 -8 0
-18 -4 -21 -10z"/>
<path d="M850 250 c0 -5 12 -10 28 -9 24 0 25 1 7 9 -27 12 -35 12 -35 0z"/>
<path d="M1100 251 c0 -5 14 -11 30 -13 20 -3 30 0 30 9 0 8 -12 13 -30 13
-16 0 -30 -4 -30 -9z"/>
<path d="M2677 253 c-10 -10 -8 -33 2 -33 6 0 9 9 8 20 -1 23 -1 22 -10 13z"/>
<path d="M3539 251 c12 -8 51 -4 51 5 0 2 -15 4 -32 4 -23 0 -29 -3 -19 -9z"/>
<path d="M1031 238 c0 -10 -8 -18 -16 -18 -8 0 -15 -4 -15 -8 0 -12 59 -2 67
11 4 6 0 8 -10 4 -10 -4 -17 0 -20 11 -4 16 -5 15 -6 0z"/>
<path d="M3923 244 c4 -5 20 -10 35 -12 15 -2 30 -9 35 -15 5 -8 7 -5 5 8 -2
15 -12 21 -43 23 -22 2 -36 0 -32 -4z"/>
<path d="M130 229 c0 -10 50 -18 55 -9 3 4 -9 10 -25 12 -17 3 -30 1 -30 -3z"/>
<path d="M280 233 c0 -5 19 -10 42 -12 23 -1 40 0 37 3 -10 10 -79 17 -79 9z"/>
<path d="M570 231 c0 -5 14 -9 30 -9 17 1 30 4 30 7 0 4 -13 8 -30 9 -16 1
-30 -2 -30 -7z"/>
<path d="M2315 216 c4 -28 14 -48 16 -30 0 5 2 17 4 27 2 9 0 15 -5 12 -5 -3
-11 1 -14 7 -3 7 -3 0 -1 -16z"/>
<path d="M4300 230 c-12 -8 -11 -10 8 -10 12 0 22 5 22 10 0 13 -11 13 -30 0z"/>
<path d="M4360 232 c0 -5 14 -7 30 -4 17 2 30 6 30 8 0 2 -13 4 -30 4 -16 0
-30 -4 -30 -8z"/>
<path d="M4135 219 c26 -10 65 -11 65 -1 0 4 -19 8 -42 8 -31 1 -37 -1 -23 -7z"/>
<path d="M823 207 c-3 -6 -1 -7 5 -3 7 4 12 3 12 -1 0 -5 18 -10 40 -11 23 -2
40 2 40 8 0 5 -10 10 -22 11 -13 0 -33 2 -46 3 -13 2 -26 -2 -29 -7z"/>
<path d="M2430 201 c0 -12 6 -21 15 -21 8 0 15 4 15 9 0 5 -7 14 -15 21 -13
10 -15 9 -15 -9z"/>
<path d="M3215 210 c-30 -8 -30 -8 8 -9 23 -1 36 3 32 9 -3 6 -7 9 -8 9 -1 -1
-15 -5 -32 -9z"/>
<path d="M526 200 c-19 -6 -19 -7 -1 -13 20 -8 29 -4 24 11 -2 5 -13 6 -23 2z"/>
<path d="M3275 200 c3 -5 12 -10 20 -10 8 0 17 5 20 10 4 6 -5 10 -20 10 -15
0 -24 -4 -20 -10z"/>
<path d="M3340 200 c0 -6 11 -8 24 -6 16 3 27 -1 30 -11 4 -9 9 -14 11 -11 3
3 3 13 -1 22 -7 18 -64 23 -64 6z"/>
<path d="M3790 199 c0 -11 37 -12 43 -1 3 4 -6 8 -19 8 -13 1 -24 -2 -24 -7z"/>
<path d="M15 189 c-16 -6 -14 -8 13 -8 33 -1 41 4 20 12 -7 2 -22 1 -33 -4z"/>
<path d="M86 190 c-19 -6 -19 -7 2 -12 12 -4 24 -2 27 2 8 13 -8 18 -29 10z"/>
<path d="M130 190 c0 -5 10 -10 23 -10 18 0 19 2 7 10 -19 13 -30 13 -30 0z"/>
<path d="M181 183 c0 -11 3 -13 6 -5 2 6 8 10 13 7 16 -10 90 -13 90 -3 0 5
-4 7 -9 4 -5 -4 -11 0 -14 6 -3 10 -7 10 -19 0 -11 -9 -18 -10 -23 -2 -11 17
-45 12 -44 -7z"/>
<path d="M3438 193 c-20 -5 -23 -18 -8 -28 6 -3 10 0 10 7 0 11 2 11 9 0 11
-18 114 -32 129 -17 10 9 -11 23 -43 28 -16 3 -41 7 -55 10 -14 3 -33 3 -42 0z"/>
<path d="M3928 187 c15 -7 26 -7 33 0 7 7 -1 10 -23 10 -31 1 -32 0 -10 -10z"/>
<path d="M2100 171 c0 -11 26 -22 34 -14 3 3 3 10 0 14 -7 12 -34 11 -34 0z"/>
<path d="M809 154 c41 -17 42 -17 36 -1 -3 6 -20 13 -38 14 l-32 2 34 -15z"/>
<path d="M886 153 c-3 -4 3 -13 15 -21 11 -8 22 -12 23 -11 5 7 -32 37 -38 32z"/>
<path d="M2826 147 c2 -7 19 -18 37 -25 l32 -12 -29 25 c-32 27 -48 32 -40 12z"/>
<path d="M4286 150 c-19 -6 -19 -7 -1 -13 20 -8 29 -4 24 11 -2 5 -13 6 -23 2z"/>
<path d="M4 142 c3 -5 20 -9 38 -10 23 -1 28 2 18 8 -19 12 -63 13 -56 2z"/>
<path d="M1250 136 c0 -8 4 -17 9 -20 10 -7 23 19 14 28 -11 11 -23 6 -23 -8z"/>
<path d="M2210 140 c13 -9 13 -11 0 -20 -11 -7 -7 -10 18 -10 38 0 42 12 7 28
-31 15 -46 15 -25 2z"/>
<path d="M3819 133 c-8 -9 -9 -14 -2 -10 6 4 14 1 16 -5 3 -7 6 -3 6 10 1 26
-2 27 -20 5z"/>
<path d="M4471 134 c13 -16 29 -19 29 -5 0 5 -9 11 -21 14 -16 4 -18 3 -8 -9z"/>
<path d="M80 124 c0 -13 3 -14 13 -5 8 6 18 7 22 3 5 -4 5 -1 1 6 -10 18 -36
15 -36 -4z"/>
<path d="M130 131 c0 -5 7 -12 16 -15 24 -9 27 -7 10 9 -17 17 -26 19 -26 6z"/>
<path d="M3580 130 c0 -5 7 -10 15 -10 8 0 15 5 15 10 0 6 -7 10 -15 10 -8 0
-15 -4 -15 -10z"/>
<path d="M728 111 c-12 -8 -18 -9 -14 -3 4 7 -9 10 -44 9 -27 -1 -50 -5 -50
-9 0 -5 -11 -8 -24 -8 -31 0 -56 -10 -56 -21 0 -6 7 -6 18 0 10 5 57 9 105 9
55 0 93 5 102 12 13 11 14 10 8 -5 -6 -17 -5 -17 14 1 11 10 18 21 16 24 -9
11 -55 5 -75 -9z"/>
<path d="M1350 123 c0 -24 2 -28 14 -24 25 7 41 8 46 1 3 -5 23 -11 45 -14 28
-5 37 -4 29 4 -6 6 -22 12 -35 12 -13 1 -28 4 -34 8 -5 3 -19 6 -30 6 -11 -1
-23 4 -27 9 -5 6 -8 5 -8 -2z"/>
<path d="M3652 117 c-17 -20 -26 -67 -13 -67 6 0 11 6 11 14 0 8 6 17 13 19 9
4 9 6 -1 6 -10 1 -10 6 -2 21 12 22 8 26 -8 7z"/>
<path d="M3680 123 c0 -14 20 -39 20 -25 0 6 5 12 11 12 5 0 7 -6 3 -12 -5
-10 -3 -10 7 0 12 11 12 14 -1 22 -18 12 -40 13 -40 3z"/>
<path d="M3932 118 c2 -5 8 -9 13 -9 5 0 11 4 13 9 1 5 -4 9 -13 9 -9 0 -14
-4 -13 -9z"/>
<path d="M2950 107 c0 -4 17 -7 38 -6 20 1 46 -2 57 -6 16 -6 18 -5 8 5 -12
14 -103 20 -103 7z"/>
<path d="M3976 108 c3 -4 11 -8 19 -8 7 0 16 -8 18 -17 3 -11 5 -8 6 9 1 24
-3 27 -23 26 -14 -1 -22 -6 -20 -10z"/>
<path d="M4085 109 c-4 -5 -3 -9 2 -10 4 0 27 -3 51 -5 25 -3 42 -1 42 5 0 6
-10 10 -22 10 -13 -1 -33 1 -45 4 -13 3 -25 2 -28 -4z"/>
<path d="M1090 96 c0 -15 27 -29 34 -18 3 5 -4 13 -15 20 -15 10 -19 10 -19
-2z"/>
<path d="M2090 99 c0 -5 4 -8 9 -5 5 3 12 -1 15 -9 4 -13 9 -13 25 -3 11 7 17
16 14 20 -2 5 -11 4 -18 -2 -9 -8 -15 -8 -20 0 -8 13 -25 13 -25 -1z"/>
<path d="M3744 85 c0 -14 4 -25 9 -25 10 0 9 38 -2 44 -5 3 -8 -5 -7 -19z"/>
<path d="M155 90 c7 -11 45 -20 45 -10 0 4 -11 10 -25 12 -13 3 -22 2 -20 -2z"/>
<path d="M220 90 c-18 -11 18 -22 37 -11 13 7 12 9 -5 13 -11 3 -25 2 -32 -2z"/>
<path d="M1140 88 c0 -14 8 -18 33 -17 27 2 28 2 7 6 -14 3 -28 10 -32 17 -5
7 -8 5 -8 -6z"/>
<path d="M4250 89 c0 -5 4 -8 9 -4 6 3 15 -3 21 -12 11 -17 11 -17 6 0 -3 10
-6 21 -6 23 0 2 -7 4 -15 4 -8 0 -15 -5 -15 -11z"/>
<path d="M1306 82 c-7 -12 7 -27 29 -30 18 -2 18 -1 -3 11 -12 7 -19 16 -16
20 4 4 5 7 1 7 -3 0 -8 -4 -11 -8z"/>
<path d="M1590 80 c0 -12 28 -25 36 -17 3 3 -4 10 -15 17 -15 7 -21 7 -21 0z"/>
<path d="M3400 75 c12 -15 30 -12 30 6 0 5 -10 9 -21 9 -18 0 -19 -2 -9 -15z"/>
<path d="M3527 83 c-9 -15 1 -21 35 -21 18 0 25 5 21 14 -4 10 -10 11 -23 4
-13 -7 -20 -6 -22 2 -3 9 -6 9 -11 1z"/>
<path d="M825 66 c-11 -8 -14 -16 -8 -19 6 -4 18 0 28 7 11 8 14 16 8 19 -6 4
-18 0 -28 -7z"/>
<path d="M1766 67 c3 -10 16 -16 29 -15 13 1 21 6 19 10 -3 5 -10 6 -15 2 -5
-3 -17 0 -25 7 -12 10 -13 9 -8 -4z"/>
<path d="M3452 71 c-11 -6 -10 -10 4 -15 20 -8 32 0 18 14 -5 5 -15 5 -22 1z"/>
<path d="M3486 66 c3 -9 11 -16 16 -16 13 0 5 23 -10 28 -7 2 -10 -2 -6 -12z"/>
<path d="M356 58 c5 -7 2 -9 -9 -5 -9 3 -18 1 -21 -6 -3 -9 -5 -9 -5 1 -1 18
-21 15 -21 -3 0 -12 9 -15 38 -11 20 3 40 5 45 5 4 1 7 6 7 12 0 5 -4 7 -10 4
-5 -3 -10 -1 -10 4 0 6 -5 11 -11 11 -5 0 -7 -5 -3 -12z"/>
<path d="M415 60 c3 -5 1 -10 -4 -10 -6 0 -11 -4 -11 -10 0 -17 19 -11 30 10
9 16 8 20 -5 20 -9 0 -13 -4 -10 -10z"/>
<path d="M496 50 c-11 -3 -15 -9 -10 -13 10 -6 42 9 34 16 -3 3 -14 1 -24 -3z"/>
<path d="M1080 51 c0 -10 30 -24 37 -17 3 2 -5 9 -16 16 -12 6 -21 7 -21 1z"/>
<path d="M3230 49 c0 -5 4 -7 10 -4 5 3 19 1 30 -5 16 -9 20 -8 20 5 0 10 -10
15 -30 15 -16 0 -30 -5 -30 -11z"/>
<path d="M98 3 c56 -2 148 -2 205 0 56 1 10 3 -103 3 -113 0 -159 -2 -102 -3z"/>
<path d="M1448 3 c563 -2 1481 -2 2040 0 559 1 99 2 -1023 2 -1122 0 -1580 -1
-1017 -2z"/>
</g>
</svg>
